<svg width="72" height="72" viewBox="0 0 72 72" fill="none" xmlns="http://www.w3.org/2000/svg">
<path d="M55.6 25H50V18C50 11 43.72 4 36 4C28.28 4 22 11 22 18V25H16.4C13.97 25 12 26.97 12 29.4V63.6C12 66.03 13.97 68 16.4 68H55.6C58.03 68 60 66.03 60 63.6V29.4C60 26.97 58.03 25 55.6 25ZM27 25V18C27 13.04 31.04 9 36 9C40.96 9 45 13.04 45 18V25H27Z" fill="black"/>
<path d="M41 44C41 41.24 38.76 39 36 39C33.24 39 31 41.24 31 44C31 45.91 32.08 47.55 33.65 48.39L32 55H40L38.35 48.39C39.92 47.55 41 45.91 41 44Z" fill="white"/>
</svg>
