<svg width="24" height="24" viewBox="0 0 24 24" fill="none" xmlns="http://www.w3.org/2000/svg">
<path d="M12.5839 22.6873H2.19697C1.53571 22.6873 1 22.1512 1 21.4902V2.19696C1 1.53579 1.53579 1 2.19697 1H21.4904C22.1514 1 22.6873 1.53579 22.6873 2.19696V21.4902C22.6873 22.1513 22.1513 22.6873 21.4904 22.6873H15.9639V14.2888H18.7829L19.205 11.0157H15.9639V8.92608C15.9639 7.97846 16.227 7.33269 17.5859 7.33269L19.3191 7.33193V4.40449C19.0194 4.3646 17.9905 4.27549 16.7936 4.27549C14.2947 4.27549 12.5839 5.80081 12.5839 8.60194V11.0157H9.75765V14.2888H12.5839V22.6873V22.6873Z" fill="#1A1B1F"/>
</svg>
